<svg width="42" height="42" viewBox="0 0 42 42" xmlns="http://www.w3.org/2000/svg">
  <defs><clipPath id="globeClip"><circle cx="19" cy="20" r="16"/></clipPath></defs>
  <circle cx="19" cy="20" r="16" fill="#1A2E4A"/>
  <g clip-path="url(#globeClip)" fill="none" stroke="#C9962A" stroke-width="0.7" opacity="0.7">
    <line x1="3" y1="20" x2="35" y2="20"/><ellipse cx="19" cy="20" rx="16" ry="5.5"/><ellipse cx="19" cy="20" rx="16" ry="11"/>
  </g>
  <g clip-path="url(#globeClip)" fill="none" stroke="#C9962A" stroke-width="0.7" opacity="0.7">
    <line x1="19" y1="4" x2="19" y2="36"/><ellipse cx="19" cy="20" rx="7" ry="16"/><ellipse cx="19" cy="20" rx="13" ry="16"/>
  </g>
  <circle cx="19" cy="20" r="16" fill="none" stroke="#C9962A" stroke-width="1.4"/>
  <circle cx="30" cy="31" r="8" fill="#15243B"/>
  <circle cx="30" cy="31" r="8" fill="none" stroke="#C9962A" stroke-width="1.2"/>
  <g transform="translate(30,31) scale(0.155)">
    <path d="M 0,-42 L 14,-18 L 34,-26 L 26,-6 L 52,-4 L 38,14 L 44,38 L 18,30 L 14,62 L -14,62 L -18,30 L -44,38 L -38,14 L -52,-4 L -26,-6 L -34,-26 L -14,-18 Z" fill="#C41230"/>
  </g>
</svg>
